<svg width="998" height="148" viewBox="0 0 998 148" fill="none" xmlns="http://www.w3.org/2000/svg">
<path d="M0.726562 0.710938H8.44141V42.9961L54.6328 77.5664V0.710938H62.3477V139.09L54.6328 146.805L46.918 139.09H54.6328V92.9961L8.44141 50.7109V142.996H0.726562V0.710938ZM225.238 1.19922L228.754 4.8125V140.359L221.625 147.488H218.109V61.8438L196.625 40.457C185.948 44.6237 176.443 52.957 168.109 65.457V147.488H160.98V4.8125H168.109L196.625 29.7148L225.238 1.19922ZM168.109 15.457V54.7148H171.723C171.723 48.3346 177.647 42.3776 189.496 36.8438V33.3281L168.109 15.457ZM200.238 36.8438L218.109 47.5859V19.0703L200.238 36.8438ZM330.414 0.710938H337.934V42.0195L375.434 4.42188L379.145 8.23047V11.9414L337.934 56.9609V147H330.414V56.9609L285.395 8.23047H292.914L330.414 42.0195V0.710938ZM435.688 8.03516L477.68 50.0273V53.25L442.133 85.5742C459.385 94.8841 471.234 104.585 477.68 114.676L432.465 147L429.242 143.777V14.4805L435.688 8.03516ZM435.785 21.1211V76.6875H439.008C455.479 61.4531 466.384 53.8359 471.723 53.8359V50.5156L435.785 21.1211ZM435.785 89.7734V138.895L468.5 112.723L435.785 89.7734ZM550.922 0.710938C577.68 23.237 591.059 37.8529 591.059 44.5586C584.743 60.2487 578.656 68.8099 572.797 70.2422H569.184V66.5312L583.832 40.9453L550.922 11.6484L525.238 44.5586L594.77 139.676V143.387H591.059L554.535 103.152C544.77 123.4 535.004 138.016 525.238 147L521.625 143.387L550.922 95.8281L514.301 44.5586L550.922 0.710938ZM722.602 1.6875L724.848 4.22656L691.547 72.3906L695.062 73.0742L731.098 72.9766L732.758 81.8633L681 146.805H675.141L672.211 144.656L720.258 85.1836L723.09 81.4727L719.477 80.8867L684.809 79.5195L681 76.2969L716.547 1.19922L722.602 1.6875ZM785.688 0.710938L831.879 43.0938V147H824.164V46.9023C821.299 39.9362 808.474 29.6823 785.688 16.1406V147H777.973V8.42578L785.688 0.710938ZM964.887 0.710938H968.5L964.887 4.32422V8.03516L997.797 40.9453H994.184L968.5 18.9727H964.887V147H957.562V15.3594L928.266 40.9453L924.652 37.2344V33.6211L964.887 0.710938Z" fill="#FFF6EE"/>
</svg>
