<svg width="383" height="383" viewBox="0 0 383 383" fill="none" xmlns="http://www.w3.org/2000/svg">
<path d="M164 188.5L188 212.5L228.5 172" stroke="#DAA16C" stroke-width="5" stroke-linecap="round"/>
<path d="M383 191.5C383 297.263 297.263 383 191.5 383C85.7375 383 0 297.263 0 191.5C0 85.7375 85.7375 0 191.5 0C297.263 0 383 85.7375 383 191.5ZM77.6731 191.5C77.6731 254.365 128.635 305.327 191.5 305.327C254.365 305.327 305.327 254.365 305.327 191.5C305.327 128.635 254.365 77.6731 191.5 77.6731C128.635 77.6731 77.6731 128.635 77.6731 191.5Z" fill="#DDD4CC"/>
</svg>
